<mxfile host="Electron" agent="Mozilla/5.0 (Windows NT 10.0; Win64; x64) AppleWebKit/537.36 (KHTML, like Gecko) draw.io/24.7.8 Chrome/128.0.6613.36 Electron/32.0.1 Safari/537.36" version="24.7.8">
  <diagram name="Page-1" id="mSH0QAg9bjCCCG-LfDNZ">
    <mxGraphModel dx="1250" dy="1242" grid="1" gridSize="10" guides="1" tooltips="1" connect="1" arrows="1" fold="1" page="1" pageScale="1" pageWidth="850" pageHeight="1100" math="0" shadow="0">
      <root>
        <mxCell id="0" />
        <mxCell id="1" parent="0" />
        <mxCell id="GE6FvVAKaBgYsRIhtcIL-1" value="Turista" style="whiteSpace=wrap;html=1;align=center;" parent="1" vertex="1">
          <mxGeometry x="2355" y="366.25" width="120" height="50" as="geometry" />
        </mxCell>
        <mxCell id="GE6FvVAKaBgYsRIhtcIL-2" value="&lt;u&gt;ID_&lt;/u&gt;&lt;u style=&quot;background-color: initial;&quot;&gt;Turista&lt;/u&gt;" style="ellipse;whiteSpace=wrap;html=1;align=center;" parent="1" vertex="1">
          <mxGeometry x="2180" y="223.75" width="120" height="50" as="geometry" />
        </mxCell>
        <mxCell id="GE6FvVAKaBgYsRIhtcIL-3" value="" style="endArrow=none;html=1;rounded=0;" parent="1" source="GE6FvVAKaBgYsRIhtcIL-1" target="GE6FvVAKaBgYsRIhtcIL-2" edge="1">
          <mxGeometry width="50" height="50" relative="1" as="geometry">
            <mxPoint x="2220" y="473.75" as="sourcePoint" />
            <mxPoint x="2270" y="423.75" as="targetPoint" />
          </mxGeometry>
        </mxCell>
        <mxCell id="GE6FvVAKaBgYsRIhtcIL-4" value="Primer_Nombre" style="ellipse;whiteSpace=wrap;html=1;align=center;" parent="1" vertex="1">
          <mxGeometry x="2160" y="281.5" width="120" height="50" as="geometry" />
        </mxCell>
        <mxCell id="GE6FvVAKaBgYsRIhtcIL-5" value="" style="endArrow=none;html=1;rounded=0;" parent="1" source="GE6FvVAKaBgYsRIhtcIL-4" target="GE6FvVAKaBgYsRIhtcIL-1" edge="1">
          <mxGeometry width="50" height="50" relative="1" as="geometry">
            <mxPoint x="2250" y="513.75" as="sourcePoint" />
            <mxPoint x="2300" y="463.75" as="targetPoint" />
          </mxGeometry>
        </mxCell>
        <mxCell id="GE6FvVAKaBgYsRIhtcIL-6" value="Apellido_Paterno" style="ellipse;whiteSpace=wrap;html=1;align=center;" parent="1" vertex="1">
          <mxGeometry x="2140" y="339" width="120" height="50" as="geometry" />
        </mxCell>
        <mxCell id="GE6FvVAKaBgYsRIhtcIL-7" value="" style="endArrow=none;html=1;rounded=0;" parent="1" source="GE6FvVAKaBgYsRIhtcIL-6" target="GE6FvVAKaBgYsRIhtcIL-1" edge="1">
          <mxGeometry width="50" height="50" relative="1" as="geometry">
            <mxPoint x="2250" y="643.75" as="sourcePoint" />
            <mxPoint x="2380" y="552.75" as="targetPoint" />
          </mxGeometry>
        </mxCell>
        <mxCell id="GE6FvVAKaBgYsRIhtcIL-8" value="&lt;span style=&quot;background-color: initial;&quot;&gt;Apellido_Materno&lt;/span&gt;" style="ellipse;whiteSpace=wrap;html=1;align=center;" parent="1" vertex="1">
          <mxGeometry x="2160" y="395" width="120" height="50" as="geometry" />
        </mxCell>
        <mxCell id="GE6FvVAKaBgYsRIhtcIL-9" value="" style="endArrow=none;html=1;rounded=0;" parent="1" source="GE6FvVAKaBgYsRIhtcIL-8" target="GE6FvVAKaBgYsRIhtcIL-1" edge="1">
          <mxGeometry width="50" height="50" relative="1" as="geometry">
            <mxPoint x="2250" y="693.75" as="sourcePoint" />
            <mxPoint x="2380" y="486.75" as="targetPoint" />
          </mxGeometry>
        </mxCell>
        <mxCell id="GE6FvVAKaBgYsRIhtcIL-10" value="&lt;span style=&quot;background-color: initial;&quot;&gt;Tipo_Documento&lt;/span&gt;" style="ellipse;whiteSpace=wrap;html=1;align=center;" parent="1" vertex="1">
          <mxGeometry x="2520" y="223.75" width="120" height="50" as="geometry" />
        </mxCell>
        <mxCell id="GE6FvVAKaBgYsRIhtcIL-11" value="" style="endArrow=none;html=1;rounded=0;" parent="1" source="GE6FvVAKaBgYsRIhtcIL-10" target="GE6FvVAKaBgYsRIhtcIL-1" edge="1">
          <mxGeometry width="50" height="50" relative="1" as="geometry">
            <mxPoint x="2250" y="747.75" as="sourcePoint" />
            <mxPoint x="2380" y="503.75" as="targetPoint" />
          </mxGeometry>
        </mxCell>
        <mxCell id="GE6FvVAKaBgYsRIhtcIL-12" value="&lt;span style=&quot;background-color: initial;&quot;&gt;Numero_&lt;/span&gt;&lt;span style=&quot;background-color: initial;&quot;&gt;Documento&lt;/span&gt;" style="ellipse;whiteSpace=wrap;html=1;align=center;" parent="1" vertex="1">
          <mxGeometry x="2540" y="281.5" width="120" height="50" as="geometry" />
        </mxCell>
        <mxCell id="GE6FvVAKaBgYsRIhtcIL-13" value="" style="endArrow=none;html=1;rounded=0;" parent="1" source="GE6FvVAKaBgYsRIhtcIL-12" target="GE6FvVAKaBgYsRIhtcIL-1" edge="1">
          <mxGeometry width="50" height="50" relative="1" as="geometry">
            <mxPoint x="2260" y="807.75" as="sourcePoint" />
            <mxPoint x="2407" y="513.75" as="targetPoint" />
          </mxGeometry>
        </mxCell>
        <mxCell id="GE6FvVAKaBgYsRIhtcIL-14" value="Fecha_Nacimiento" style="ellipse;whiteSpace=wrap;html=1;align=center;" parent="1" vertex="1">
          <mxGeometry x="2560" y="339" width="120" height="50" as="geometry" />
        </mxCell>
        <mxCell id="GE6FvVAKaBgYsRIhtcIL-15" value="" style="endArrow=none;html=1;rounded=0;" parent="1" source="GE6FvVAKaBgYsRIhtcIL-14" target="GE6FvVAKaBgYsRIhtcIL-1" edge="1">
          <mxGeometry width="50" height="50" relative="1" as="geometry">
            <mxPoint x="2280" y="867.75" as="sourcePoint" />
            <mxPoint x="2429" y="513.75" as="targetPoint" />
          </mxGeometry>
        </mxCell>
        <mxCell id="GE6FvVAKaBgYsRIhtcIL-16" value="" style="endArrow=none;html=1;rounded=0;" parent="1" source="GE6FvVAKaBgYsRIhtcIL-17" target="GE6FvVAKaBgYsRIhtcIL-1" edge="1">
          <mxGeometry width="50" height="50" relative="1" as="geometry">
            <mxPoint x="2350" y="658.75" as="sourcePoint" />
            <mxPoint x="2483" y="463.75" as="targetPoint" />
          </mxGeometry>
        </mxCell>
        <mxCell id="GE6FvVAKaBgYsRIhtcIL-17" value="Correo_&lt;span style=&quot;background-color: initial;&quot;&gt;Electronico&lt;/span&gt;" style="ellipse;whiteSpace=wrap;html=1;align=center;" parent="1" vertex="1">
          <mxGeometry x="2540" y="395" width="120" height="50" as="geometry" />
        </mxCell>
        <mxCell id="GE6FvVAKaBgYsRIhtcIL-19" value="" style="endArrow=none;html=1;rounded=0;" parent="1" source="GE6FvVAKaBgYsRIhtcIL-20" target="GE6FvVAKaBgYsRIhtcIL-1" edge="1">
          <mxGeometry width="50" height="50" relative="1" as="geometry">
            <mxPoint x="2390" y="758.75" as="sourcePoint" />
            <mxPoint x="2449.2941176470586" y="453.75" as="targetPoint" />
          </mxGeometry>
        </mxCell>
        <mxCell id="GE6FvVAKaBgYsRIhtcIL-20" value="Contrasenia" style="ellipse;whiteSpace=wrap;html=1;align=center;" parent="1" vertex="1">
          <mxGeometry x="2190" y="451.25" width="120" height="50" as="geometry" />
        </mxCell>
        <mxCell id="GE6FvVAKaBgYsRIhtcIL-22" value="Pasaje" style="whiteSpace=wrap;html=1;align=center;" parent="1" vertex="1">
          <mxGeometry x="1845" y="427.5" width="120" height="50" as="geometry" />
        </mxCell>
        <mxCell id="GE6FvVAKaBgYsRIhtcIL-24" value="&lt;u&gt;ID_Pasaje&lt;/u&gt;" style="ellipse;whiteSpace=wrap;html=1;align=center;" parent="1" vertex="1">
          <mxGeometry x="2000" y="370" width="120" height="50" as="geometry" />
        </mxCell>
        <mxCell id="GE6FvVAKaBgYsRIhtcIL-25" value="" style="endArrow=none;html=1;rounded=0;" parent="1" source="GE6FvVAKaBgYsRIhtcIL-22" target="GE6FvVAKaBgYsRIhtcIL-24" edge="1">
          <mxGeometry width="50" height="50" relative="1" as="geometry">
            <mxPoint x="1797.5" y="475" as="sourcePoint" />
            <mxPoint x="1640.5" y="485" as="targetPoint" />
          </mxGeometry>
        </mxCell>
        <mxCell id="GE6FvVAKaBgYsRIhtcIL-28" value="Fue_Utilizado" style="ellipse;whiteSpace=wrap;html=1;align=center;" parent="1" vertex="1">
          <mxGeometry x="2000" y="442" width="120" height="50" as="geometry" />
        </mxCell>
        <mxCell id="GE6FvVAKaBgYsRIhtcIL-29" value="" style="endArrow=none;html=1;rounded=0;" parent="1" source="GE6FvVAKaBgYsRIhtcIL-22" target="GE6FvVAKaBgYsRIhtcIL-28" edge="1">
          <mxGeometry width="50" height="50" relative="1" as="geometry">
            <mxPoint x="1885.5" y="513" as="sourcePoint" />
            <mxPoint x="1610.5" y="665" as="targetPoint" />
          </mxGeometry>
        </mxCell>
        <mxCell id="GE6FvVAKaBgYsRIhtcIL-36" value="Viaje" style="whiteSpace=wrap;html=1;align=center;" parent="1" vertex="1">
          <mxGeometry x="1430" y="160" width="120" height="50" as="geometry" />
        </mxCell>
        <mxCell id="GE6FvVAKaBgYsRIhtcIL-43" value="Importe" style="ellipse;whiteSpace=wrap;html=1;align=center;" parent="1" vertex="1">
          <mxGeometry x="1500" y="250" width="120" height="50" as="geometry" />
        </mxCell>
        <mxCell id="GE6FvVAKaBgYsRIhtcIL-44" value="" style="endArrow=none;html=1;rounded=0;" parent="1" source="GE6FvVAKaBgYsRIhtcIL-36" target="GE6FvVAKaBgYsRIhtcIL-43" edge="1">
          <mxGeometry width="50" height="50" relative="1" as="geometry">
            <mxPoint x="1098.11" y="363.75" as="sourcePoint" />
            <mxPoint x="918.1099999999999" y="813.7499999999999" as="targetPoint" />
          </mxGeometry>
        </mxCell>
        <mxCell id="GE6FvVAKaBgYsRIhtcIL-49" value="Duracion_Aprox" style="ellipse;whiteSpace=wrap;html=1;align=center;" parent="1" vertex="1">
          <mxGeometry x="1560" y="80" width="120" height="50" as="geometry" />
        </mxCell>
        <mxCell id="GE6FvVAKaBgYsRIhtcIL-50" value="" style="endArrow=none;html=1;rounded=0;" parent="1" source="GE6FvVAKaBgYsRIhtcIL-36" target="GE6FvVAKaBgYsRIhtcIL-49" edge="1">
          <mxGeometry width="50" height="50" relative="1" as="geometry">
            <mxPoint x="1075.11" y="493.75" as="sourcePoint" />
            <mxPoint x="918.1099999999999" y="993.7499999999999" as="targetPoint" />
          </mxGeometry>
        </mxCell>
        <mxCell id="GE6FvVAKaBgYsRIhtcIL-51" value="Info_General" style="ellipse;whiteSpace=wrap;html=1;align=center;" parent="1" vertex="1">
          <mxGeometry x="1360" y="250" width="120" height="50" as="geometry" />
        </mxCell>
        <mxCell id="GE6FvVAKaBgYsRIhtcIL-52" value="" style="endArrow=none;html=1;rounded=0;" parent="1" source="GE6FvVAKaBgYsRIhtcIL-36" target="GE6FvVAKaBgYsRIhtcIL-51" edge="1">
          <mxGeometry width="50" height="50" relative="1" as="geometry">
            <mxPoint x="1075.11" y="553.7499999999999" as="sourcePoint" />
            <mxPoint x="918.1099999999999" y="1053.75" as="targetPoint" />
          </mxGeometry>
        </mxCell>
        <mxCell id="GE6FvVAKaBgYsRIhtcIL-45" value="Fecha_Salida" style="ellipse;whiteSpace=wrap;html=1;align=center;" parent="1" vertex="1">
          <mxGeometry x="1430" y="60" width="120" height="50" as="geometry" />
        </mxCell>
        <mxCell id="GE6FvVAKaBgYsRIhtcIL-54" value="Bus" style="whiteSpace=wrap;html=1;align=center;" parent="1" vertex="1">
          <mxGeometry x="1430" y="682.5" width="120" height="50" as="geometry" />
        </mxCell>
        <mxCell id="GE6FvVAKaBgYsRIhtcIL-55" value="&lt;u&gt;ID_Bus&lt;br&gt;&lt;/u&gt;" style="ellipse;whiteSpace=wrap;html=1;align=center;" parent="1" vertex="1">
          <mxGeometry x="1300" y="597.5" width="120" height="50" as="geometry" />
        </mxCell>
        <mxCell id="GE6FvVAKaBgYsRIhtcIL-56" value="" style="endArrow=none;html=1;rounded=0;" parent="1" source="GE6FvVAKaBgYsRIhtcIL-54" target="GE6FvVAKaBgYsRIhtcIL-55" edge="1">
          <mxGeometry width="50" height="50" relative="1" as="geometry">
            <mxPoint x="1700" y="1175.5" as="sourcePoint" />
            <mxPoint x="1701" y="1295.5" as="targetPoint" />
          </mxGeometry>
        </mxCell>
        <mxCell id="GE6FvVAKaBgYsRIhtcIL-57" value="Marca" style="ellipse;whiteSpace=wrap;html=1;align=center;" parent="1" vertex="1">
          <mxGeometry x="1280" y="658.28" width="120" height="50" as="geometry" />
        </mxCell>
        <mxCell id="GE6FvVAKaBgYsRIhtcIL-58" value="" style="endArrow=none;html=1;rounded=0;" parent="1" source="GE6FvVAKaBgYsRIhtcIL-54" target="GE6FvVAKaBgYsRIhtcIL-57" edge="1">
          <mxGeometry width="50" height="50" relative="1" as="geometry">
            <mxPoint x="1740" y="1235" as="sourcePoint" />
            <mxPoint x="1670" y="2003.0000000000002" as="targetPoint" />
          </mxGeometry>
        </mxCell>
        <mxCell id="GE6FvVAKaBgYsRIhtcIL-59" value="Tipo" style="ellipse;whiteSpace=wrap;html=1;align=center;" parent="1" vertex="1">
          <mxGeometry x="1280" y="713.28" width="120" height="50" as="geometry" />
        </mxCell>
        <mxCell id="GE6FvVAKaBgYsRIhtcIL-60" value="" style="endArrow=none;html=1;rounded=0;" parent="1" source="GE6FvVAKaBgYsRIhtcIL-54" target="GE6FvVAKaBgYsRIhtcIL-59" edge="1">
          <mxGeometry width="50" height="50" relative="1" as="geometry">
            <mxPoint x="1619" y="1198" as="sourcePoint" />
            <mxPoint x="1619" y="2058.0000000000005" as="targetPoint" />
          </mxGeometry>
        </mxCell>
        <mxCell id="GE6FvVAKaBgYsRIhtcIL-61" value="Capacidad" style="ellipse;whiteSpace=wrap;html=1;align=center;" parent="1" vertex="1">
          <mxGeometry x="1300" y="773.28" width="120" height="50" as="geometry" />
        </mxCell>
        <mxCell id="GE6FvVAKaBgYsRIhtcIL-62" value="" style="endArrow=none;html=1;rounded=0;" parent="1" source="GE6FvVAKaBgYsRIhtcIL-54" target="GE6FvVAKaBgYsRIhtcIL-61" edge="1">
          <mxGeometry width="50" height="50" relative="1" as="geometry">
            <mxPoint x="1516.5" y="1168" as="sourcePoint" />
            <mxPoint x="1638.8931044022884" y="1223.06642143723" as="targetPoint" />
          </mxGeometry>
        </mxCell>
        <mxCell id="GE6FvVAKaBgYsRIhtcIL-70" value="Departamento" style="whiteSpace=wrap;html=1;align=center;" parent="1" vertex="1">
          <mxGeometry x="1048.1100000000001" y="763.36" width="120" height="50" as="geometry" />
        </mxCell>
        <mxCell id="GE6FvVAKaBgYsRIhtcIL-71" value="&lt;u&gt;ID_Departamento&lt;/u&gt;" style="ellipse;whiteSpace=wrap;html=1;align=center;" parent="1" vertex="1">
          <mxGeometry x="890" y="730" width="120" height="50" as="geometry" />
        </mxCell>
        <mxCell id="GE6FvVAKaBgYsRIhtcIL-72" value="" style="endArrow=none;html=1;rounded=0;" parent="1" source="GE6FvVAKaBgYsRIhtcIL-70" target="GE6FvVAKaBgYsRIhtcIL-71" edge="1">
          <mxGeometry width="50" height="50" relative="1" as="geometry">
            <mxPoint x="893" y="1093.6100000000001" as="sourcePoint" />
            <mxPoint x="640" y="1188.6100000000001" as="targetPoint" />
          </mxGeometry>
        </mxCell>
        <mxCell id="GE6FvVAKaBgYsRIhtcIL-73" value="Nombre_Departamento" style="ellipse;whiteSpace=wrap;html=1;align=center;" parent="1" vertex="1">
          <mxGeometry x="875" y="803.36" width="150" height="50" as="geometry" />
        </mxCell>
        <mxCell id="GE6FvVAKaBgYsRIhtcIL-74" value="" style="endArrow=none;html=1;rounded=0;" parent="1" source="GE6FvVAKaBgYsRIhtcIL-70" target="GE6FvVAKaBgYsRIhtcIL-73" edge="1">
          <mxGeometry width="50" height="50" relative="1" as="geometry">
            <mxPoint x="935" y="1176.1100000000001" as="sourcePoint" />
            <mxPoint x="948.8931044022884" y="1246.1764214372301" as="targetPoint" />
          </mxGeometry>
        </mxCell>
        <mxCell id="GE6FvVAKaBgYsRIhtcIL-75" value="Terminal" style="whiteSpace=wrap;html=1;align=center;" parent="1" vertex="1">
          <mxGeometry x="1048.1100000000001" y="450" width="120" height="50" as="geometry" />
        </mxCell>
        <mxCell id="GE6FvVAKaBgYsRIhtcIL-76" value="&lt;u&gt;ID_Terminal&lt;/u&gt;" style="ellipse;whiteSpace=wrap;html=1;align=center;" parent="1" vertex="1">
          <mxGeometry x="890" y="410" width="120" height="50" as="geometry" />
        </mxCell>
        <mxCell id="GE6FvVAKaBgYsRIhtcIL-77" value="" style="endArrow=none;html=1;rounded=0;" parent="1" source="GE6FvVAKaBgYsRIhtcIL-75" target="GE6FvVAKaBgYsRIhtcIL-76" edge="1">
          <mxGeometry width="50" height="50" relative="1" as="geometry">
            <mxPoint x="1210" y="937.25" as="sourcePoint" />
            <mxPoint x="900" y="985.25" as="targetPoint" />
          </mxGeometry>
        </mxCell>
        <mxCell id="GE6FvVAKaBgYsRIhtcIL-80" value="Nombre_Terminal" style="ellipse;whiteSpace=wrap;html=1;align=center;" parent="1" vertex="1">
          <mxGeometry x="890" y="480" width="120" height="50" as="geometry" />
        </mxCell>
        <mxCell id="GE6FvVAKaBgYsRIhtcIL-81" value="" style="endArrow=none;html=1;rounded=0;" parent="1" source="GE6FvVAKaBgYsRIhtcIL-75" target="GE6FvVAKaBgYsRIhtcIL-80" edge="1">
          <mxGeometry width="50" height="50" relative="1" as="geometry">
            <mxPoint x="1330" y="897.75" as="sourcePoint" />
            <mxPoint x="1284.8931044022884" y="1035.31642143723" as="targetPoint" />
          </mxGeometry>
        </mxCell>
        <mxCell id="GE6FvVAKaBgYsRIhtcIL-82" value="COMPRA" style="shape=rhombus;perimeter=rhombusPerimeter;whiteSpace=wrap;html=1;align=center;" parent="1" vertex="1">
          <mxGeometry x="2335" y="156.25" width="160" height="70" as="geometry" />
        </mxCell>
        <mxCell id="GE6FvVAKaBgYsRIhtcIL-85" value="" style="endArrow=none;html=1;rounded=0;" parent="1" source="GE6FvVAKaBgYsRIhtcIL-1" target="GE6FvVAKaBgYsRIhtcIL-82" edge="1">
          <mxGeometry width="50" height="50" relative="1" as="geometry">
            <mxPoint x="2550" y="636" as="sourcePoint" />
            <mxPoint x="2415" y="210" as="targetPoint" />
          </mxGeometry>
        </mxCell>
        <mxCell id="GE6FvVAKaBgYsRIhtcIL-95" value="ES" style="shape=rhombus;perimeter=rhombusPerimeter;whiteSpace=wrap;html=1;align=center;" parent="1" vertex="1">
          <mxGeometry x="2195" y="556.5" width="160" height="70" as="geometry" />
        </mxCell>
        <mxCell id="GE6FvVAKaBgYsRIhtcIL-96" value="" style="endArrow=none;html=1;rounded=0;entryX=0.5;entryY=0;entryDx=0;entryDy=0;" parent="1" edge="1">
          <mxGeometry width="50" height="50" relative="1" as="geometry">
            <mxPoint x="2392.819969742814" y="417.25" as="sourcePoint" />
            <mxPoint x="2274" y="557.5" as="targetPoint" />
          </mxGeometry>
        </mxCell>
        <mxCell id="GE6FvVAKaBgYsRIhtcIL-112" value="SE_ENCUENTRA_EN" style="shape=rhombus;perimeter=rhombusPerimeter;whiteSpace=wrap;html=1;align=center;" parent="1" vertex="1">
          <mxGeometry x="1028.1100000000001" y="597.5" width="160" height="70" as="geometry" />
        </mxCell>
        <mxCell id="GE6FvVAKaBgYsRIhtcIL-113" value="" style="endArrow=none;html=1;rounded=0;entryX=0.5;entryY=0;entryDx=0;entryDy=0;" parent="1" source="GE6FvVAKaBgYsRIhtcIL-75" target="GE6FvVAKaBgYsRIhtcIL-112" edge="1">
          <mxGeometry width="50" height="50" relative="1" as="geometry">
            <mxPoint x="656" y="941.61" as="sourcePoint" />
            <mxPoint x="881" y="1033.6100000000001" as="targetPoint" />
          </mxGeometry>
        </mxCell>
        <mxCell id="GE6FvVAKaBgYsRIhtcIL-114" value="" style="endArrow=none;html=1;rounded=0;exitX=0.5;exitY=1;exitDx=0;exitDy=0;" parent="1" source="GE6FvVAKaBgYsRIhtcIL-112" target="GE6FvVAKaBgYsRIhtcIL-70" edge="1">
          <mxGeometry width="50" height="50" relative="1" as="geometry">
            <mxPoint x="980" y="962.36" as="sourcePoint" />
            <mxPoint x="990" y="908.36" as="targetPoint" />
          </mxGeometry>
        </mxCell>
        <mxCell id="GE6FvVAKaBgYsRIhtcIL-115" value="n" style="text;html=1;align=center;verticalAlign=middle;whiteSpace=wrap;rounded=0;" parent="1" vertex="1">
          <mxGeometry x="1100" y="500" width="60" height="30" as="geometry" />
        </mxCell>
        <mxCell id="GE6FvVAKaBgYsRIhtcIL-116" value="1" style="text;html=1;align=center;verticalAlign=middle;whiteSpace=wrap;rounded=0;" parent="1" vertex="1">
          <mxGeometry x="1100" y="733.36" width="60" height="30" as="geometry" />
        </mxCell>
        <mxCell id="GE6FvVAKaBgYsRIhtcIL-135" value="" style="endArrow=none;html=1;rounded=0;" parent="1" source="GE6FvVAKaBgYsRIhtcIL-54" target="V4HeosOHNdlSo_BDMXzv-9" edge="1">
          <mxGeometry width="50" height="50" relative="1" as="geometry">
            <mxPoint x="2160" y="379.75" as="sourcePoint" />
            <mxPoint x="2020" y="179.9999999999999" as="targetPoint" />
            <Array as="points" />
          </mxGeometry>
        </mxCell>
        <mxCell id="GE6FvVAKaBgYsRIhtcIL-137" value="" style="endArrow=none;html=1;rounded=0;entryX=0.5;entryY=0;entryDx=0;entryDy=0;" parent="1" source="GE6FvVAKaBgYsRIhtcIL-138" target="V4HeosOHNdlSo_BDMXzv-9" edge="1">
          <mxGeometry width="50" height="50" relative="1" as="geometry">
            <mxPoint x="1970" y="659.75" as="sourcePoint" />
            <mxPoint x="1380" y="530" as="targetPoint" />
            <Array as="points" />
          </mxGeometry>
        </mxCell>
        <mxCell id="GE6FvVAKaBgYsRIhtcIL-138" value="Asiento" style="shape=ext;margin=3;double=1;whiteSpace=wrap;html=1;align=center;" parent="1" vertex="1">
          <mxGeometry x="1430" y="427.5" width="120" height="50" as="geometry" />
        </mxCell>
        <mxCell id="GE6FvVAKaBgYsRIhtcIL-141" value="Numero_Fila" style="ellipse;whiteSpace=wrap;html=1;align=center;" parent="1" vertex="1">
          <mxGeometry x="1260" y="450" width="120" height="50" as="geometry" />
        </mxCell>
        <mxCell id="GE6FvVAKaBgYsRIhtcIL-142" value="" style="endArrow=none;html=1;rounded=0;" parent="1" source="GE6FvVAKaBgYsRIhtcIL-138" target="GE6FvVAKaBgYsRIhtcIL-141" edge="1">
          <mxGeometry width="50" height="50" relative="1" as="geometry">
            <mxPoint x="1355" y="822.25" as="sourcePoint" />
            <mxPoint x="1453.8931044022884" y="899.06642143723" as="targetPoint" />
          </mxGeometry>
        </mxCell>
        <mxCell id="GE6FvVAKaBgYsRIhtcIL-145" value="Letra_Columna" style="ellipse;whiteSpace=wrap;html=1;align=center;" parent="1" vertex="1">
          <mxGeometry x="1260" y="392" width="120" height="50" as="geometry" />
        </mxCell>
        <mxCell id="GE6FvVAKaBgYsRIhtcIL-146" value="" style="endArrow=none;html=1;rounded=0;" parent="1" source="GE6FvVAKaBgYsRIhtcIL-138" target="GE6FvVAKaBgYsRIhtcIL-145" edge="1">
          <mxGeometry width="50" height="50" relative="1" as="geometry">
            <mxPoint x="1395" y="876.25" as="sourcePoint" />
            <mxPoint x="1453.8931044022884" y="958.31642143723" as="targetPoint" />
          </mxGeometry>
        </mxCell>
        <mxCell id="V4HeosOHNdlSo_BDMXzv-9" value="CONTIENE" style="shape=rhombus;perimeter=rhombusPerimeter;whiteSpace=wrap;html=1;align=center;" parent="1" vertex="1">
          <mxGeometry x="1410" y="539.75" width="160" height="70" as="geometry" />
        </mxCell>
        <mxCell id="V4HeosOHNdlSo_BDMXzv-21" value="" style="endArrow=none;html=1;rounded=0;" parent="1" source="AZCm5TIoqO3OL9hLOQy2-1" target="GE6FvVAKaBgYsRIhtcIL-1" edge="1">
          <mxGeometry width="50" height="50" relative="1" as="geometry">
            <mxPoint x="2541.9156345983943" y="456.93184363686646" as="sourcePoint" />
            <mxPoint x="2712" y="627.5" as="targetPoint" />
          </mxGeometry>
        </mxCell>
        <mxCell id="KF16L9DJjpcyJue44yk5-5" value="TIENE" style="shape=rhombus;perimeter=rhombusPerimeter;whiteSpace=wrap;html=1;align=center;" parent="1" vertex="1">
          <mxGeometry x="1028.1100000000001" y="280" width="160" height="70" as="geometry" />
        </mxCell>
        <mxCell id="KF16L9DJjpcyJue44yk5-6" value="" style="endArrow=none;html=1;rounded=0;exitX=0.5;exitY=0;exitDx=0;exitDy=0;" parent="1" source="KF16L9DJjpcyJue44yk5-5" target="GE6FvVAKaBgYsRIhtcIL-36" edge="1">
          <mxGeometry width="50" height="50" relative="1" as="geometry">
            <mxPoint x="1060" y="846.86" as="sourcePoint" />
            <mxPoint x="1110" y="796.86" as="targetPoint" />
            <Array as="points">
              <mxPoint x="1108" y="185" />
            </Array>
          </mxGeometry>
        </mxCell>
        <mxCell id="KF16L9DJjpcyJue44yk5-7" value="" style="endArrow=none;html=1;rounded=0;entryX=0.5;entryY=1;entryDx=0;entryDy=0;" parent="1" source="GE6FvVAKaBgYsRIhtcIL-75" target="KF16L9DJjpcyJue44yk5-5" edge="1">
          <mxGeometry width="50" height="50" relative="1" as="geometry">
            <mxPoint x="1110" y="787.36" as="sourcePoint" />
            <mxPoint x="1160" y="829.8599999999996" as="targetPoint" />
          </mxGeometry>
        </mxCell>
        <mxCell id="KF16L9DJjpcyJue44yk5-8" value="&lt;u&gt;Id_Viaje&lt;/u&gt;" style="ellipse;whiteSpace=wrap;html=1;align=center;" parent="1" vertex="1">
          <mxGeometry x="1300" y="80" width="120" height="50" as="geometry" />
        </mxCell>
        <mxCell id="KF16L9DJjpcyJue44yk5-11" value="SE_RELACIONA" style="shape=rhombus;perimeter=rhombusPerimeter;whiteSpace=wrap;html=1;align=center;" parent="1" vertex="1">
          <mxGeometry x="1620" y="417.5" width="160" height="70" as="geometry" />
        </mxCell>
        <mxCell id="KF16L9DJjpcyJue44yk5-13" value="" style="endArrow=none;html=1;rounded=0;entryX=0;entryY=0.5;entryDx=0;entryDy=0;" parent="1" source="GE6FvVAKaBgYsRIhtcIL-138" target="KF16L9DJjpcyJue44yk5-11" edge="1">
          <mxGeometry width="50" height="50" relative="1" as="geometry">
            <mxPoint x="1373.4250000000002" y="451.98695" as="sourcePoint" />
            <mxPoint x="1120" y="463" as="targetPoint" />
          </mxGeometry>
        </mxCell>
        <mxCell id="OkRJBLjyh7LfPfYJJKJ6-1" value="1" style="text;html=1;align=center;verticalAlign=middle;whiteSpace=wrap;rounded=0;" parent="1" vertex="1">
          <mxGeometry x="1550" y="452" width="60" height="30" as="geometry" />
        </mxCell>
        <mxCell id="OkRJBLjyh7LfPfYJJKJ6-3" value="n" style="text;html=1;align=center;verticalAlign=middle;whiteSpace=wrap;rounded=0;" parent="1" vertex="1">
          <mxGeometry x="1380" y="184" width="60" height="30" as="geometry" />
        </mxCell>
        <mxCell id="OkRJBLjyh7LfPfYJJKJ6-5" value="n" style="text;html=1;align=center;verticalAlign=middle;whiteSpace=wrap;rounded=0;" parent="1" vertex="1">
          <mxGeometry x="1480" y="480" width="60" height="30" as="geometry" />
        </mxCell>
        <mxCell id="OkRJBLjyh7LfPfYJJKJ6-6" value="1" style="text;html=1;align=center;verticalAlign=middle;whiteSpace=wrap;rounded=0;" parent="1" vertex="1">
          <mxGeometry x="1480" y="652.5" width="60" height="30" as="geometry" />
        </mxCell>
        <mxCell id="OkRJBLjyh7LfPfYJJKJ6-7" value="Fecha_Compra" style="ellipse;whiteSpace=wrap;html=1;align=center;" parent="1" vertex="1">
          <mxGeometry x="2000" y="510" width="120" height="50" as="geometry" />
        </mxCell>
        <mxCell id="OkRJBLjyh7LfPfYJJKJ6-8" value="" style="endArrow=none;html=1;rounded=0;" parent="1" source="GE6FvVAKaBgYsRIhtcIL-22" target="OkRJBLjyh7LfPfYJJKJ6-7" edge="1">
          <mxGeometry width="50" height="50" relative="1" as="geometry">
            <mxPoint x="1900.5" y="573.75" as="sourcePoint" />
            <mxPoint x="1592.5" y="811.75" as="targetPoint" />
          </mxGeometry>
        </mxCell>
        <mxCell id="AZCm5TIoqO3OL9hLOQy2-1" value="Telefono" style="ellipse;whiteSpace=wrap;html=1;align=center;" vertex="1" parent="1">
          <mxGeometry x="2520" y="451.25" width="120" height="50" as="geometry" />
        </mxCell>
        <mxCell id="AZCm5TIoqO3OL9hLOQy2-2" value="SE_BENEFICIA_DE" style="shape=rhombus;perimeter=rhombusPerimeter;whiteSpace=wrap;html=1;align=center;" vertex="1" parent="1">
          <mxGeometry x="2475" y="559.86" width="160" height="70" as="geometry" />
        </mxCell>
        <mxCell id="AZCm5TIoqO3OL9hLOQy2-3" value="" style="endArrow=none;html=1;rounded=0;entryX=0.5;entryY=0;entryDx=0;entryDy=0;" edge="1" parent="1" target="AZCm5TIoqO3OL9hLOQy2-2" source="GE6FvVAKaBgYsRIhtcIL-1">
          <mxGeometry width="50" height="50" relative="1" as="geometry">
            <mxPoint x="2649" y="416.5" as="sourcePoint" />
            <mxPoint x="2750" y="576.25" as="targetPoint" />
          </mxGeometry>
        </mxCell>
        <mxCell id="AZCm5TIoqO3OL9hLOQy2-4" value="TIENE" style="shape=rhombus;perimeter=rhombusPerimeter;whiteSpace=wrap;html=1;align=center;" vertex="1" parent="1">
          <mxGeometry x="2335" y="666.5" width="160" height="70" as="geometry" />
        </mxCell>
        <mxCell id="AZCm5TIoqO3OL9hLOQy2-5" value="" style="endArrow=none;html=1;rounded=0;entryX=0.5;entryY=0;entryDx=0;entryDy=0;" edge="1" parent="1" target="AZCm5TIoqO3OL9hLOQy2-4" source="GE6FvVAKaBgYsRIhtcIL-1">
          <mxGeometry width="50" height="50" relative="1" as="geometry">
            <mxPoint x="2529.5" y="516.5" as="sourcePoint" />
            <mxPoint x="2630.5" y="676.25" as="targetPoint" />
          </mxGeometry>
        </mxCell>
        <mxCell id="AZCm5TIoqO3OL9hLOQy2-6" value="Turista_Mercosur" style="whiteSpace=wrap;html=1;align=center;" vertex="1" parent="1">
          <mxGeometry x="2110" y="696.5" width="120" height="50" as="geometry" />
        </mxCell>
        <mxCell id="AZCm5TIoqO3OL9hLOQy2-7" value="Turista_Telefono" style="whiteSpace=wrap;html=1;align=center;" vertex="1" parent="1">
          <mxGeometry x="2355" y="786.5" width="120" height="50" as="geometry" />
        </mxCell>
        <mxCell id="AZCm5TIoqO3OL9hLOQy2-8" value="Turista_Beneficio" style="whiteSpace=wrap;html=1;align=center;" vertex="1" parent="1">
          <mxGeometry x="2620" y="696.5" width="120" height="50" as="geometry" />
        </mxCell>
        <mxCell id="AZCm5TIoqO3OL9hLOQy2-9" value="" style="endArrow=none;html=1;rounded=0;exitX=0.5;exitY=1;exitDx=0;exitDy=0;" edge="1" parent="1" source="GE6FvVAKaBgYsRIhtcIL-95" target="AZCm5TIoqO3OL9hLOQy2-6">
          <mxGeometry width="50" height="50" relative="1" as="geometry">
            <mxPoint x="2540" y="685.72" as="sourcePoint" />
            <mxPoint x="2540" y="935.72" as="targetPoint" />
          </mxGeometry>
        </mxCell>
        <mxCell id="AZCm5TIoqO3OL9hLOQy2-10" value="" style="endArrow=none;html=1;rounded=0;exitX=0.5;exitY=1;exitDx=0;exitDy=0;" edge="1" parent="1" source="AZCm5TIoqO3OL9hLOQy2-4" target="AZCm5TIoqO3OL9hLOQy2-7">
          <mxGeometry width="50" height="50" relative="1" as="geometry">
            <mxPoint x="2550" y="695.72" as="sourcePoint" />
            <mxPoint x="2550" y="945.72" as="targetPoint" />
          </mxGeometry>
        </mxCell>
        <mxCell id="AZCm5TIoqO3OL9hLOQy2-11" value="" style="endArrow=none;html=1;rounded=0;exitX=0.5;exitY=1;exitDx=0;exitDy=0;" edge="1" parent="1" source="AZCm5TIoqO3OL9hLOQy2-2" target="AZCm5TIoqO3OL9hLOQy2-8">
          <mxGeometry width="50" height="50" relative="1" as="geometry">
            <mxPoint x="2560" y="705.72" as="sourcePoint" />
            <mxPoint x="2560" y="955.72" as="targetPoint" />
          </mxGeometry>
        </mxCell>
        <mxCell id="AZCm5TIoqO3OL9hLOQy2-12" value="Es_Turista_Mercosur" style="ellipse;whiteSpace=wrap;html=1;align=center;" vertex="1" parent="1">
          <mxGeometry x="2100" y="809.86" width="140" height="50" as="geometry" />
        </mxCell>
        <mxCell id="AZCm5TIoqO3OL9hLOQy2-13" value="" style="endArrow=none;html=1;rounded=0;" edge="1" parent="1" source="AZCm5TIoqO3OL9hLOQy2-6" target="AZCm5TIoqO3OL9hLOQy2-12">
          <mxGeometry width="50" height="50" relative="1" as="geometry">
            <mxPoint x="2310" y="726.5" as="sourcePoint" />
            <mxPoint x="2233" y="796.5" as="targetPoint" />
          </mxGeometry>
        </mxCell>
        <mxCell id="AZCm5TIoqO3OL9hLOQy2-14" value="Telefono_Turista" style="ellipse;whiteSpace=wrap;html=1;align=center;" vertex="1" parent="1">
          <mxGeometry x="2355" y="896.5" width="120" height="50" as="geometry" />
        </mxCell>
        <mxCell id="AZCm5TIoqO3OL9hLOQy2-15" value="" style="endArrow=none;html=1;rounded=0;" edge="1" parent="1" target="AZCm5TIoqO3OL9hLOQy2-14" source="AZCm5TIoqO3OL9hLOQy2-7">
          <mxGeometry width="50" height="50" relative="1" as="geometry">
            <mxPoint x="2415" y="826.5" as="sourcePoint" />
            <mxPoint x="2478" y="876.5" as="targetPoint" />
          </mxGeometry>
        </mxCell>
        <mxCell id="AZCm5TIoqO3OL9hLOQy2-16" value="Descripcion_Beneficio" style="ellipse;whiteSpace=wrap;html=1;align=center;" vertex="1" parent="1">
          <mxGeometry x="2610" y="809.86" width="140" height="50" as="geometry" />
        </mxCell>
        <mxCell id="AZCm5TIoqO3OL9hLOQy2-17" value="" style="endArrow=none;html=1;rounded=0;" edge="1" parent="1" target="AZCm5TIoqO3OL9hLOQy2-16" source="AZCm5TIoqO3OL9hLOQy2-8">
          <mxGeometry width="50" height="50" relative="1" as="geometry">
            <mxPoint x="2680" y="749.86" as="sourcePoint" />
            <mxPoint x="2743" y="789.86" as="targetPoint" />
          </mxGeometry>
        </mxCell>
        <mxCell id="AZCm5TIoqO3OL9hLOQy2-18" value="" style="endArrow=none;html=1;rounded=0;entryX=0;entryY=0.5;entryDx=0;entryDy=0;" edge="1" parent="1" source="GE6FvVAKaBgYsRIhtcIL-22" target="GE6FvVAKaBgYsRIhtcIL-82">
          <mxGeometry width="50" height="50" relative="1" as="geometry">
            <mxPoint x="1904.17" y="375.25" as="sourcePoint" />
            <mxPoint x="1904.17" y="126.25" as="targetPoint" />
            <Array as="points">
              <mxPoint x="1905" y="191" />
            </Array>
          </mxGeometry>
        </mxCell>
        <mxCell id="AZCm5TIoqO3OL9hLOQy2-19" value="" style="endArrow=none;html=1;rounded=0;exitX=1;exitY=0.5;exitDx=0;exitDy=0;" edge="1" parent="1" source="KF16L9DJjpcyJue44yk5-11" target="GE6FvVAKaBgYsRIhtcIL-22">
          <mxGeometry width="50" height="50" relative="1" as="geometry">
            <mxPoint x="1500" y="200" as="sourcePoint" />
            <mxPoint x="1500" y="438" as="targetPoint" />
            <Array as="points" />
          </mxGeometry>
        </mxCell>
        <mxCell id="AZCm5TIoqO3OL9hLOQy2-20" value="LE_CORRESPONDE" style="shape=rhombus;perimeter=rhombusPerimeter;whiteSpace=wrap;html=1;align=center;" vertex="1" parent="1">
          <mxGeometry x="1630" y="672.5" width="160" height="70" as="geometry" />
        </mxCell>
        <mxCell id="AZCm5TIoqO3OL9hLOQy2-21" value="" style="endArrow=none;html=1;rounded=0;entryX=0;entryY=0.5;entryDx=0;entryDy=0;" edge="1" parent="1" target="AZCm5TIoqO3OL9hLOQy2-20" source="GE6FvVAKaBgYsRIhtcIL-54">
          <mxGeometry width="50" height="50" relative="1" as="geometry">
            <mxPoint x="1560" y="583.78" as="sourcePoint" />
            <mxPoint x="1130" y="593.78" as="targetPoint" />
          </mxGeometry>
        </mxCell>
        <mxCell id="AZCm5TIoqO3OL9hLOQy2-23" value="" style="endArrow=none;html=1;rounded=0;exitX=1;exitY=0.5;exitDx=0;exitDy=0;" edge="1" parent="1" source="AZCm5TIoqO3OL9hLOQy2-20" target="GE6FvVAKaBgYsRIhtcIL-22">
          <mxGeometry width="50" height="50" relative="1" as="geometry">
            <mxPoint x="1510" y="402.5" as="sourcePoint" />
            <mxPoint x="1855" y="655.5" as="targetPoint" />
            <Array as="points" />
          </mxGeometry>
        </mxCell>
        <mxCell id="AZCm5TIoqO3OL9hLOQy2-24" value="" style="endArrow=none;html=1;rounded=0;" edge="1" parent="1" source="GE6FvVAKaBgYsRIhtcIL-36" target="GE6FvVAKaBgYsRIhtcIL-45">
          <mxGeometry width="50" height="50" relative="1" as="geometry">
            <mxPoint x="1560" y="120" as="sourcePoint" />
            <mxPoint x="1654" y="153" as="targetPoint" />
          </mxGeometry>
        </mxCell>
        <mxCell id="AZCm5TIoqO3OL9hLOQy2-25" value="" style="endArrow=none;html=1;rounded=0;" edge="1" parent="1" source="GE6FvVAKaBgYsRIhtcIL-36" target="KF16L9DJjpcyJue44yk5-8">
          <mxGeometry width="50" height="50" relative="1" as="geometry">
            <mxPoint x="1570" y="196" as="sourcePoint" />
            <mxPoint x="1664" y="229" as="targetPoint" />
          </mxGeometry>
        </mxCell>
        <mxCell id="AZCm5TIoqO3OL9hLOQy2-27" value="PERTENECE" style="shape=rhombus;perimeter=rhombusPerimeter;whiteSpace=wrap;html=1;align=center;" vertex="1" parent="1">
          <mxGeometry x="1620" y="150" width="160" height="70" as="geometry" />
        </mxCell>
        <mxCell id="AZCm5TIoqO3OL9hLOQy2-28" value="" style="endArrow=none;html=1;rounded=0;entryX=0;entryY=0.5;entryDx=0;entryDy=0;" edge="1" parent="1" target="AZCm5TIoqO3OL9hLOQy2-27" source="GE6FvVAKaBgYsRIhtcIL-36">
          <mxGeometry width="50" height="50" relative="1" as="geometry">
            <mxPoint x="1550" y="325.5" as="sourcePoint" />
            <mxPoint x="1120" y="335.5" as="targetPoint" />
          </mxGeometry>
        </mxCell>
        <mxCell id="AZCm5TIoqO3OL9hLOQy2-29" value="" style="endArrow=none;html=1;rounded=0;exitX=1;exitY=0.5;exitDx=0;exitDy=0;" edge="1" parent="1" source="AZCm5TIoqO3OL9hLOQy2-27" target="GE6FvVAKaBgYsRIhtcIL-22">
          <mxGeometry width="50" height="50" relative="1" as="geometry">
            <mxPoint x="1500" y="72.5" as="sourcePoint" />
            <mxPoint x="1845" y="325.5" as="targetPoint" />
            <Array as="points" />
          </mxGeometry>
        </mxCell>
        <mxCell id="AZCm5TIoqO3OL9hLOQy2-30" value="1" style="text;html=1;align=center;verticalAlign=middle;whiteSpace=wrap;rounded=0;" vertex="1" parent="1">
          <mxGeometry x="1100" y="417.5" width="60" height="30" as="geometry" />
        </mxCell>
        <mxCell id="AZCm5TIoqO3OL9hLOQy2-31" value="1" style="text;html=1;align=center;verticalAlign=middle;whiteSpace=wrap;rounded=0;" vertex="1" parent="1">
          <mxGeometry x="1550" y="184" width="60" height="30" as="geometry" />
        </mxCell>
        <mxCell id="AZCm5TIoqO3OL9hLOQy2-32" value="n" style="text;html=1;align=center;verticalAlign=middle;whiteSpace=wrap;rounded=0;" vertex="1" parent="1">
          <mxGeometry x="1830" y="395" width="60" height="30" as="geometry" />
        </mxCell>
        <mxCell id="AZCm5TIoqO3OL9hLOQy2-33" value="n" style="text;html=1;align=center;verticalAlign=middle;whiteSpace=wrap;rounded=0;" vertex="1" parent="1">
          <mxGeometry x="1785" y="451.25" width="60" height="30" as="geometry" />
        </mxCell>
        <mxCell id="AZCm5TIoqO3OL9hLOQy2-34" value="n" style="text;html=1;align=center;verticalAlign=middle;whiteSpace=wrap;rounded=0;" vertex="1" parent="1">
          <mxGeometry x="1880" y="477.5" width="60" height="30" as="geometry" />
        </mxCell>
        <mxCell id="AZCm5TIoqO3OL9hLOQy2-35" value="1" style="text;html=1;align=center;verticalAlign=middle;whiteSpace=wrap;rounded=0;" vertex="1" parent="1">
          <mxGeometry x="1550" y="707.5" width="60" height="30" as="geometry" />
        </mxCell>
        <mxCell id="AZCm5TIoqO3OL9hLOQy2-36" value="n" style="text;html=1;align=center;verticalAlign=middle;whiteSpace=wrap;rounded=0;" vertex="1" parent="1">
          <mxGeometry x="1905" y="395.5" width="60" height="30" as="geometry" />
        </mxCell>
        <mxCell id="AZCm5TIoqO3OL9hLOQy2-37" value="1" style="text;html=1;align=center;verticalAlign=middle;whiteSpace=wrap;rounded=0;" vertex="1" parent="1">
          <mxGeometry x="2400" y="336.25" width="60" height="30" as="geometry" />
        </mxCell>
        <mxCell id="AZCm5TIoqO3OL9hLOQy2-38" value="1" style="text;html=1;align=center;verticalAlign=middle;whiteSpace=wrap;rounded=0;" vertex="1" parent="1">
          <mxGeometry x="2150" y="666.5" width="60" height="30" as="geometry" />
        </mxCell>
        <mxCell id="AZCm5TIoqO3OL9hLOQy2-39" value="1" style="text;html=1;align=center;verticalAlign=middle;whiteSpace=wrap;rounded=0;" vertex="1" parent="1">
          <mxGeometry x="2356" y="425" width="60" height="30" as="geometry" />
        </mxCell>
        <mxCell id="AZCm5TIoqO3OL9hLOQy2-40" value="1" style="text;html=1;align=center;verticalAlign=middle;whiteSpace=wrap;rounded=0;" vertex="1" parent="1">
          <mxGeometry x="2400" y="450" width="60" height="30" as="geometry" />
        </mxCell>
        <mxCell id="AZCm5TIoqO3OL9hLOQy2-41" value="1" style="text;html=1;align=center;verticalAlign=middle;whiteSpace=wrap;rounded=0;" vertex="1" parent="1">
          <mxGeometry x="2439" y="425" width="60" height="30" as="geometry" />
        </mxCell>
        <mxCell id="AZCm5TIoqO3OL9hLOQy2-43" value="n" style="text;html=1;align=center;verticalAlign=middle;whiteSpace=wrap;rounded=0;" vertex="1" parent="1">
          <mxGeometry x="2400" y="756.5" width="60" height="30" as="geometry" />
        </mxCell>
        <mxCell id="AZCm5TIoqO3OL9hLOQy2-44" value="1" style="text;html=1;align=center;verticalAlign=middle;whiteSpace=wrap;rounded=0;" vertex="1" parent="1">
          <mxGeometry x="2630" y="666.5" width="60" height="30" as="geometry" />
        </mxCell>
      </root>
    </mxGraphModel>
  </diagram>
</mxfile>
